<?xml version="1.0" standalone="no"?>
<svg xmlns:xlink="http://www.w3.org/1999/xlink" id="wave" style="transform:rotate(0deg); transition: 0.3s" viewBox="0 0 1440 490" version="1.1" xmlns="http://www.w3.org/2000/svg"><defs><linearGradient id="sw-gradient-0" x1="0" x2="0" y1="1" y2="0"><stop stop-color="rgba(39, 56, 76, 1)" offset="0%"/><stop stop-color="rgba(39, 56, 76, 1)" offset="100%"/></linearGradient></defs><path style="transform:translate(0, 0px); opacity:1" fill="url(#sw-gradient-0)" d="M0,245L60,277.7C120,310,240,376,360,367.5C480,359,600,278,720,212.3C840,147,960,98,1080,122.5C1200,147,1320,245,1440,277.7C1560,310,1680,278,1800,220.5C1920,163,2040,82,2160,40.8C2280,0,2400,0,2520,8.2C2640,16,2760,33,2880,57.2C3000,82,3120,114,3240,130.7C3360,147,3480,147,3600,187.8C3720,229,3840,310,3960,294C4080,278,4200,163,4320,106.2C4440,49,4560,49,4680,57.2C4800,65,4920,82,5040,130.7C5160,180,5280,261,5400,269.5C5520,278,5640,212,5760,187.8C5880,163,6000,180,6120,204.2C6240,229,6360,261,6480,269.5C6600,278,6720,261,6840,245C6960,229,7080,212,7200,212.3C7320,212,7440,229,7560,204.2C7680,180,7800,114,7920,106.2C8040,98,8160,147,8280,212.3C8400,278,8520,359,8580,400.2L8640,441L8640,490L8580,490C8520,490,8400,490,8280,490C8160,490,8040,490,7920,490C7800,490,7680,490,7560,490C7440,490,7320,490,7200,490C7080,490,6960,490,6840,490C6720,490,6600,490,6480,490C6360,490,6240,490,6120,490C6000,490,5880,490,5760,490C5640,490,5520,490,5400,490C5280,490,5160,490,5040,490C4920,490,4800,490,4680,490C4560,490,4440,490,4320,490C4200,490,4080,490,3960,490C3840,490,3720,490,3600,490C3480,490,3360,490,3240,490C3120,490,3000,490,2880,490C2760,490,2640,490,2520,490C2400,490,2280,490,2160,490C2040,490,1920,490,1800,490C1680,490,1560,490,1440,490C1320,490,1200,490,1080,490C960,490,840,490,720,490C600,490,480,490,360,490C240,490,120,490,60,490L0,490Z"/></svg>