<?xml version="1.0" standalone="no"?><svg xmlns="http://www.w3.org/2000/svg" viewBox="0 0 1440 320"><path fill="#27384c" fill-opacity="1" d="M0,224L0,192L120,192L120,256L240,256L240,32L360,32L360,224L480,224L480,64L600,64L600,32L720,32L720,160L840,160L840,128L960,128L960,256L1080,256L1080,64L1200,64L1200,192L1320,192L1320,96L1440,96L1440,320L1320,320L1320,320L1200,320L1200,320L1080,320L1080,320L960,320L960,320L840,320L840,320L720,320L720,320L600,320L600,320L480,320L480,320L360,320L360,320L240,320L240,320L120,320L120,320L0,320L0,320Z"></path></svg>